<?xml version="1.0" encoding="utf-8"?>
<!-- Generator: Adobe Illustrator 14.0.0, SVG Export Plug-In . SVG Version: 6.00 Build 43363)  -->
<!DOCTYPE svg PUBLIC "-//W3C//DTD SVG 1.1//EN" "http://www.w3.org/Graphics/SVG/1.1/DTD/svg11.dtd">
<svg version="1.1" id="レイヤー_1" xmlns="http://www.w3.org/2000/svg" xmlns:xlink="http://www.w3.org/1999/xlink" x="0px"
	 y="0px" width="400px" height="300px" viewBox="0 0 400 300" enable-background="new 0 0 400 300" xml:space="preserve">
<rect fill="#E6E6E6" width="400" height="300"/>
<path fill="#FFFFFF" d="M351.188,126.602c-1.229-27.237-19.487-42.865-32.624-50.642c1.847-5.23,3.09-11.708,2.341-19.073
	c-1.454-14.256-9.771-27.241-24.718-38.605C278.369,4.744,261.336,0.144,245.581,4.595C234.044,7.858,225.8,15.292,220.277,22.32
	c-10.477-8.024-26.841-16.04-46.897-10.858c-18.889,4.886-27.92,15.614-32.172,23.75c-4.286,8.212-5.534,16.881-5.438,24.485
	c-17.564-1.937-39.545,2.932-55.752,26.77c-10.999,16.185-10.573,30.206-8.276,39.116c1.954,7.586,5.779,14.001,10.106,19.23
	c-7.345,3.271-14.979,8.164-21.088,15.456c-9.882,11.791-13.7,26.899-11.344,44.912c2.465,18.921,10.18,32.175,22.931,39.408
	c20.688,11.729,45.204,1.686,47.93,0.505c6.362-2.77,9.28-10.17,6.518-16.528c-1.02-2.346-2.676-4.214-4.676-5.507
	c4.11-2.689,6.439-7.651,5.508-12.771c-8.843-48.767,28.614-113.229,75.624-130.14c44.253-15.935,50.819-8.349,68.897,23.147
	c7.449,12.994,22.377,57.164-5.821,88.626c-22.228,24.812-58.514,40.017-80.738,22.477c-10.022-7.906-12.363-30.343-6.121-58.573
	l0.011-0.056c7.538-16.802,21.481-30.297,34.25-33.026c3.489-0.73,8.165,0.764,12.828,4.146c6.623,4.806,11.168,11.998,11.578,15.91
	c1.496,14.155-2.261,24.245-11.498,30.834c-7.606,5.428-14.067,4.423-15.869,3.975c-1.759-0.435-2.714-1.092-3.114-1.469
	c0.44-3.637,5.562-12.491,11.033-18.962c4.5-5.276,3.862-13.208-1.418-17.699c-5.283-4.501-13.204-3.868-17.706,1.412
	c-6.662,7.818-21.529,27.727-15.716,43.629c2.901,7.931,9.772,14.096,18.86,16.907c12.323,3.819,26.725,1.066,38.518-7.353
	c16.782-11.97,24.352-30.609,21.892-53.908c-1.233-11.688-9.785-24.885-21.807-33.607c-10.569-7.671-22.218-10.65-32.833-8.38
	c-21.219,4.54-41.878,23.741-52.623,48.929c-0.441,1.039-0.737,2.106-0.887,3.182l-0.023,0.108
	c-3.942,17.81-7.633,46.758,2.705,67.992c-2.753,0.914-5.221,2.737-6.822,5.425c-9.894,16.643-20.708,48.97,1.556,64.566
	c9.244,6.455,19.645,8.639,30.107,6.262c10.568-2.394,19.701-9.079,26.825-16.175c2.268,6.574,6.129,12.874,13.703,16.351
	c3.424,1.575,7.009,2.232,10.633,2.232c10.187,0,20.63-5.187,28.365-9.65c19.437-11.197,26.327-33.049,28.654-49.787
	c4.059,1.078,8.518,1.479,13.202,0.627c11.793-2.135,20.979-11.054,27.325-26.515c7.792-18.993,5.21-34.59,0.59-45.517
	c2.637-1.363,5.271-3.146,7.743-5.466C347.928,152.828,351.848,141.349,351.188,126.602z M84.739,222.738
	c-5.519-3.132-9.023-10.124-10.416-20.799c-1.417-10.869,0.417-19.188,5.611-25.44c7.206-8.679,19.306-11.688,25.504-12.698
	c-4.286,17.249-5.476,34.702-2.525,50.965c0.615,3.396,2.541,6.221,5.158,8.061C103.452,224.334,92.45,227.111,84.739,222.738z
	 M113.795,139.169c-4.701-2.623-15.308-10.259-17.749-19.932c-1.449-5.723,0.104-11.825,4.744-18.647
	c17.174-25.26,42.084-13.712,44.794-12.357c0.479,0.245,0.987,0.323,1.482,0.502C133.221,103.143,121.798,120.585,113.795,139.169z
	 M194.745,56.509c-11.03,3.97-21.559,9.962-31.328,17.461c-0.097-0.392-0.093-0.8-0.229-1.181
	c-1.514-4.21-4.404-17.087,0.338-26.033c2.797-5.302,8.075-8.886,16.135-10.969c18.536-4.785,32.688,13.335,33.24,14.043
	c0.226,0.307,0.534,0.518,0.782,0.796C207.858,52.106,201.584,54.048,194.745,56.509z M234.397,47.343
	c0.077-0.174,0.205-0.314,0.273-0.494c0.058-0.145,6.198-14.819,17.745-18.082c7.776-2.201,17.377,1.006,28.571,9.516
	c9.072,6.892,14.088,13.915,14.898,20.884c0.932,7.956-4.032,14.146-4.028,14.146c-2.198,2.51-3.205,5.762-2.992,9.025
	C273.95,58.452,259.564,46.177,234.397,47.343z M176.924,270.141c-3.552,0.802-6.675,0.079-10.131-2.345
	c-5.998-4.19,0.381-22.234,5.635-31.162c0.109-0.194,0.169-0.394,0.273-0.594c9.196,6.501,19.327,9.938,29.812,10.844
	C198.137,253.772,187.406,267.805,176.924,270.141z M249.465,265.646c-9.854,5.683-14.352,6.286-15.722,6.293
	c-1.111-1.935-2.115-7.242-2.673-10.203c-1.088-5.764-2.316-11.654-5.474-16.616c14.352-3.252,28.497-10.261,40.972-19.596
	C266.079,237.105,263.223,257.714,249.465,265.646z M307.958,202.195c-3.181,7.763-6.487,10.934-8.527,11.31
	c-3.103,0.597-8.573-3.065-11.133-5.747c-0.456-0.498-1.021-0.811-1.535-1.212c9.589-11.383,15.501-23.963,18.544-36.741
	C308.931,174.846,314.551,186.132,307.958,202.195z M322.412,142.34c-2.953,2.87-7.706,3.072-9.067,3.072
	c-0.261,0-0.391,0.003-0.373,0c-1.725-0.185-3.388,0.124-4.984,0.629c-0.022-20.937-5.984-40.479-13.313-53.841
	c0.822,0.514,1.702,0.96,2.642,1.284c1.128,0.381,27.674,9.742,28.778,34.246C326.311,132.56,325.848,139.013,322.412,142.34z"/>
<path fill="#B3B3B3" d="M39.204,105.552L60.269,135.2l0.557,1.494v-31.143h11.689v49.395H59.36l-21.709-31.494l-0.527-1.494v32.988
	H25.405v-49.395H39.204z M121.147,111.543c4.707,4.698,7.061,10.962,7.061,18.794c0,7.812-2.354,14.058-7.061,18.735
	c-4.707,4.678-10.752,7.017-18.135,7.017c-7.695,0-13.897-2.334-18.604-7.002c-4.707-4.668-7.061-10.917-7.061-18.75
	c0-7.832,2.358-14.096,7.075-18.794c4.717-4.697,10.835-7.046,18.354-7.046C110.317,104.497,116.44,106.846,121.147,111.543z
	 M92.612,120.01c-2.618,2.706-3.926,6.128-3.926,10.269c0,4.238,1.308,7.71,3.926,10.415c2.617,2.706,6.006,4.058,10.166,4.058
	c4.179,0,7.573-1.357,10.181-4.072c2.607-2.714,3.911-6.142,3.911-10.283c0-4.219-1.299-7.68-3.896-10.386
	c-2.598-2.705-5.996-4.058-10.195-4.058C98.618,115.952,95.229,117.305,92.612,120.01z M160.698,154.946h-12.305v-49.395h12.305
	V154.946z M184.663,105.552l9.346,29.414l9.375-29.414h16.904v49.395h-11.807v-33.369l-1.084,5.889l-8.115,27.48h-10.488
	l-8.086-27.48l-1.201-5.889v33.369h-11.719v-49.395H184.663z M260.278,105.552l16.787,49.395h-12.598l-3.311-9.902h-20.859
	l-3.311,9.902H224.39l16.787-49.395H260.278z M251.343,114.692l-0.615-3.135l-0.586,3.135l-6.064,18.721h13.359L251.343,114.692z
	 M326.724,149.966c-3.028,2.032-6.255,3.56-9.683,4.585s-6.919,1.538-10.474,1.538c-8.712,0-15.421-2.222-20.127-6.665
	c-4.707-4.443-7.061-10.679-7.061-18.706c0-7.695,2.3-13.979,6.899-18.853c4.6-4.873,10.697-7.31,18.296-7.31
	c4.551,0,8.569,0.787,12.056,2.358c3.486,1.572,6.489,3.96,9.009,7.163l-9.375,7.793c-1.523-2.031-3.213-3.564-5.068-4.6
	c-1.856-1.035-3.819-1.553-5.889-1.553c-4.004,0-7.197,1.285-9.58,3.853c-2.384,2.568-3.574,6.119-3.574,10.649
	c0,4.98,1.226,8.838,3.677,11.572c2.451,2.735,5.884,4.102,10.298,4.102c1.601,0,3.135-0.229,4.6-0.688
	c1.465-0.458,2.812-1.108,4.043-1.948v-6.797h-9.111v-11.689h21.064V149.966z M375.444,116.655h-30.469v7.998h28.506v10.605h-28.506
	v8.408h30.469v11.279h-42.48v-49.395h42.48V116.655z"/>
</svg>
