<?xml version="1.0" encoding="utf-8"?>
<!-- Generator: Adobe Illustrator 14.0.0, SVG Export Plug-In . SVG Version: 6.00 Build 43363)  -->
<!DOCTYPE svg PUBLIC "-//W3C//DTD SVG 1.1//EN" "http://www.w3.org/Graphics/SVG/1.1/DTD/svg11.dtd">
<svg version="1.1" id="レイヤー_1" xmlns="http://www.w3.org/2000/svg" xmlns:xlink="http://www.w3.org/1999/xlink" x="0px"
	 y="0px" width="100px" height="12px" viewBox="0 0 100 12" enable-background="new 0 0 100 12" xml:space="preserve">
<g>
	<path fill="#3E3C3B" d="M16.331,1.054l4.66,9.996h-1.078l-1.572-3.29h-4.305l-1.558,3.29h-1.113l4.722-9.996H16.331 M16.205,3.178
		l-1.712,3.617h3.416L16.205,3.178z M26.706,1.047V11.05h1.021V6.391l4.384,4.659h1.329l-5.178-5.515l4.805-4.488h-1.343
		l-3.997,3.754V1.047H26.706 M38.806,0.948v5.948c0,1,0.06,1.692,0.181,2.075c0.191,0.625,0.57,1.128,1.137,1.508
		c0.569,0.379,1.249,0.57,2.043,0.57c0.732,0,1.357-0.202,1.873-0.604c0.515-0.401,0.858-0.874,1.031-1.415
		c0.172-0.543,0.257-1.254,0.257-2.134V0.948h-0.984v5.948c0,0.776-0.032,1.29-0.1,1.541c-0.095,0.349-0.241,0.645-0.443,0.89
		c-0.2,0.244-0.45,0.437-0.749,0.576c-0.299,0.138-0.612,0.208-0.938,0.208c-0.375,0-0.749-0.089-1.118-0.266
		C40.625,9.67,40.35,9.451,40.17,9.19c-0.177-0.262-0.291-0.587-0.339-0.977c-0.028-0.172-0.041-0.611-0.041-1.317V0.948H38.806
		 M65.695,1.047L70.36,11.05h-1.081l-1.573-3.292h-4.307l-1.561,3.292h-1.112l4.725-10.003H65.695 M65.569,3.173l-1.713,3.62h3.42
		L65.569,3.173z M94.593,2.497c-0.971-0.962-2.177-1.444-3.619-1.444c-0.886,0-1.714,0.223-2.475,0.664
		c-0.769,0.442-1.37,1.053-1.813,1.837c-0.442,0.778-0.662,1.624-0.662,2.54c0,1.371,0.485,2.541,1.455,3.506
		c0.972,0.965,2.164,1.448,3.574,1.448c1.396,0,2.577-0.483,3.546-1.455C95.565,8.62,96.05,7.44,96.05,6.049
		C96.05,4.644,95.565,3.46,94.593,2.497 M94.537,8.116c-0.349,0.622-0.842,1.111-1.471,1.47c-0.628,0.359-1.312,0.537-2.05,0.537
		c-1.106,0-2.05-0.391-2.834-1.167c-0.785-0.78-1.178-1.735-1.178-2.865c0-0.767,0.177-1.457,0.532-2.078
		c0.354-0.622,0.846-1.115,1.478-1.483c0.631-0.366,1.296-0.549,2.002-0.549c0.532,0,1.044,0.099,1.529,0.302
		c-1.134,0.107-2.02,1.061-2.02,2.224c0,1.238,1.002,2.238,2.238,2.238c1.065,0,1.953-0.74,2.179-1.739
		c0.082,0.329,0.124,0.675,0.124,1.041C95.067,6.805,94.891,7.494,94.537,8.116z M96.115,1.062v0.396h0.444v1.109h0.49V1.458h0.445
		V1.062H96.115 M97.685,2.567h0.443V2.057l-0.01-0.233l-0.021-0.223h0.005l0.272,0.967h0.344l0.273-0.967h0.005l-0.025,0.273
		l-0.006,0.233v0.46h0.443V1.062h-0.596L98.546,2L98.28,1.062h-0.596V2.567"/>
	<path fill="#97C064" d="M74.623,9.037l0.809-0.486c0.57,1.049,1.229,1.572,1.974,1.572c0.319,0,0.619-0.074,0.898-0.223
		c0.281-0.149,0.494-0.349,0.641-0.598c0.147-0.25,0.22-0.517,0.22-0.798c0-0.317-0.108-0.631-0.324-0.937
		C78.544,7.146,78,6.638,77.211,6.043c-0.794-0.6-1.287-1.034-1.482-1.303c-0.335-0.448-0.504-0.932-0.504-1.455
		c0-0.414,0.1-0.791,0.297-1.132c0.199-0.341,0.48-0.608,0.839-0.806c0.358-0.196,0.75-0.295,1.175-0.295
		c0.448,0,0.867,0.112,1.258,0.334c0.389,0.223,0.803,0.631,1.239,1.227l-0.777,0.589c-0.357-0.475-0.662-0.787-0.916-0.938
		c-0.252-0.151-0.526-0.227-0.826-0.227c-0.383,0-0.696,0.116-0.939,0.35c-0.245,0.232-0.364,0.52-0.364,0.861
		c0,0.207,0.04,0.407,0.128,0.601c0.086,0.193,0.243,0.406,0.472,0.634c0.127,0.121,0.535,0.438,1.23,0.951
		c0.823,0.609,1.389,1.149,1.695,1.623c0.307,0.476,0.457,0.951,0.457,1.431c0,0.689-0.261,1.288-0.784,1.798
		c-0.524,0.509-1.162,0.765-1.912,0.765c-0.577,0-1.102-0.156-1.571-0.464C75.453,10.278,75.02,9.761,74.623,9.037"/>
	<polyline fill="#27A4D4" points="50.742,1.938 50.742,0.948 56.274,0.948 56.274,1.938 54.023,1.938 54.023,11.05 52.995,11.05 
		52.995,1.938 50.742,1.938 	"/>
	<path fill="#EC7356" d="M0.579,0.95h2.013c1.153,0,1.932,0.051,2.334,0.15C5.502,1.244,5.974,1.536,6.34,1.978
		c0.367,0.441,0.549,0.996,0.549,1.664c0,0.674-0.178,1.229-0.535,1.665c-0.356,0.438-0.85,0.732-1.476,0.882
		C4.42,6.299,3.563,6.354,2.31,6.354H1.59v4.696H0.579V0.95 M1.59,1.939v3.426l1.709,0.02c0.691,0,1.197-0.062,1.517-0.187
		c0.32-0.126,0.572-0.329,0.756-0.611c0.182-0.281,0.274-0.595,0.274-0.942c0-0.337-0.093-0.646-0.274-0.927
		C5.388,2.437,5.146,2.236,4.847,2.117S4.056,1.939,3.374,1.939H1.59z"/>
</g>
</svg>
